<?xml version="1.0" encoding="utf-8"?>
<!-- Generator: Adobe Illustrator 15.0.0, SVG Export Plug-In . SVG Version: 6.00 Build 0)  -->
<!DOCTYPE svg PUBLIC "-//W3C//DTD SVG 1.1//EN" "http://www.w3.org/Graphics/SVG/1.1/DTD/svg11.dtd">
<svg version="1.1" id="Calque_1" xmlns="http://www.w3.org/2000/svg" xmlns:xlink="http://www.w3.org/1999/xlink" x="0px" y="0px"
	 width="150.004px" height="37.449px" viewBox="0 0 150.004 37.449" enable-background="new 0 0 150.004 37.449"
	 xml:space="preserve">
<g>
	<g>
		<path fill="#161616" d="M1.727,6.094c0.854-0.521,1.786-0.948,2.799-1.287c1.013-0.339,2.083-0.588,3.213-0.744
			c1.13-0.159,2.29-0.238,3.479-0.238c1.387,0,2.779,0.101,4.179,0.303c1.399,0.203,2.743,0.488,4.032,0.856
			c1.289,0.366,2.491,0.812,3.608,1.334c1.117,0.521,2.09,1.099,2.918,1.729c0.828,0.631,1.479,1.316,1.952,2.055
			c0.473,0.735,0.708,1.505,0.708,2.302c0,0.945-0.206,1.88-0.617,2.799c-0.411,0.921-1.055,1.753-1.933,2.495
			c-0.877,0.74-2,1.353-3.369,1.832c-1.369,0.478-3.01,0.732-4.925,0.771c1.215,0,2.277,0.193,3.185,0.579
			c0.908,0.39,1.669,0.909,2.283,1.565c0.613,0.656,1.074,1.414,1.38,2.271c0.307,0.86,0.46,1.765,0.46,2.706
			c0,0.773-0.104,1.562-0.313,2.357s-0.522,1.562-0.939,2.301c-0.418,0.736-0.939,1.428-1.565,2.072
			c-0.626,0.645-1.36,1.205-2.2,1.686c-0.84,0.479-1.79,0.855-2.844,1.131c-1.056,0.275-2.215,0.414-3.48,0.414
			c-0.798,0-1.638-0.051-2.521-0.152c-0.884-0.104-1.777-0.244-2.679-0.428c-0.903-0.178-1.79-0.389-2.661-0.635
			c-0.872-0.244-1.693-0.51-2.467-0.791c-0.344-0.086-0.648-0.215-0.912-0.387c-0.264-0.174-0.396-0.48-0.396-0.922
			c0-2.037,0.052-4.125,0.156-6.262c0.104-2.138,0.335-4.222,0.635-6.261c0.583-3.961,5.623-4.747,5.293-1.562
			c-0.112,1.072-0.298,2.106-0.396,3.129c-0.062,0.577-0.114,1.188-0.157,1.841c-0.042,0.649-0.083,1.313-0.12,1.987
			c-0.036,0.676-0.063,1.348-0.083,2.018c-0.019,0.67-0.028,1.312-0.028,1.924c0,0.102,0.003,0.232,0.009,0.404
			c0.006,0.172,0.021,0.354,0.047,0.533c0.024,0.186,0.062,0.354,0.111,0.506c0.049,0.154,0.122,0.271,0.221,0.342
			c0.749,0.246,1.553,0.455,2.412,0.625c0.858,0.172,1.718,0.26,2.577,0.26c1.043,0,2.056-0.127,3.038-0.379
			s1.854-0.646,2.615-1.193c0.76-0.547,1.372-1.246,1.832-2.102c0.46-0.854,0.691-1.887,0.691-3.104
			c0-0.713-0.136-1.308-0.406-1.776c-0.27-0.469-0.623-0.868-1.059-1.188c-0.436-0.32-0.933-0.572-1.491-0.765
			c-0.558-0.188-1.129-0.359-1.712-0.516c-0.583-0.157-1.154-0.303-1.712-0.451c-0.558-0.146-1.056-0.334-1.491-0.561
			c-0.436-0.229-0.789-0.513-1.059-0.851c-0.27-0.337-0.406-0.774-0.406-1.313c0-0.258,0.016-0.48,0.046-0.671
			c0.031-0.19,0.104-0.351,0.222-0.473c0.118-0.122,0.288-0.215,0.516-0.273c0.227-0.062,0.537-0.093,0.929-0.093
			c0.528,0,1.01,0.021,1.445,0.062c0.436,0.044,0.905,0.062,1.409,0.062c1.178,0,2.243-0.146,3.195-0.434
			c0.95-0.288,1.761-0.679,2.43-1.169c0.669-0.492,1.185-1.063,1.547-1.723c0.362-0.657,0.543-1.358,0.543-2.108
			c0-0.491-0.141-0.938-0.423-1.353c-0.282-0.41-0.679-0.779-1.188-1.104c-0.51-0.325-1.108-0.608-1.795-0.854
			c-0.688-0.244-1.436-0.45-2.247-0.616c-0.81-0.165-1.663-0.289-2.559-0.368C14.793,8.16,13.884,8.12,12.964,8.12
			c-1.166,0-2.316,0.065-3.453,0.192C8.377,8.45,7.321,8.645,6.345,8.909C5.369,9.175,4.484,9.468,3.749,9.904
			C1.384,11.304-2.152,8.232,1.727,6.094z M31.176,37.354c-0.663,0-1.28-0.291-1.85-0.873c-0.57-0.584-1.068-1.365-1.491-2.353
			c-0.424-0.979-0.755-2.119-0.995-3.414c-0.239-1.295-0.359-2.651-0.359-4.075c0-1.097,0.08-2.279,0.239-3.562
			c0.16-1.283,0.393-2.604,0.7-3.968c0.307-1.361,0.672-2.731,1.095-4.105c0.424-1.374,0.903-2.692,1.436-3.958
			c0.534-1.265,1.114-2.444,1.74-3.544c0.625-1.098,1.283-2.056,1.969-2.871c0.687-0.813,1.406-1.458,2.155-1.925
			c0.75-0.466,1.51-0.699,2.283-0.699c0.528,0,0.964,0.119,1.308,0.358c0.344,0.24,0.614,0.556,0.81,0.949
			c0.196,0.393,0.334,0.838,0.415,1.334c0.08,0.497,0.119,1.003,0.119,1.52c0,1.154-0.132,2.329-0.396,3.526
			c-0.264,1.194-0.62,2.396-1.068,3.604c-0.448,1.209-0.967,2.424-1.556,3.64c-0.588,1.215-1.203,2.421-1.841,3.617
			c-0.638,1.193-1.28,2.375-1.924,3.532c-0.644,1.159-1.249,2.293-1.813,3.396c-0.062,0.123-0.126,0.281-0.193,0.479
			c-0.067,0.195-0.132,0.408-0.193,0.636c-0.062,0.229-0.123,0.471-0.185,0.729c-0.062,0.258-0.11,0.51-0.146,0.754v0.258
			c0,0.32,0.033,0.629,0.101,0.935c0.067,0.303,0.151,0.567,0.249,0.811c0.098,0.24,0.203,0.434,0.313,0.57
			c0.11,0.143,0.214,0.213,0.312,0.213c0.233,0,0.5-0.049,0.801-0.148c0.3-0.098,0.62-0.229,0.958-0.395s0.684-0.357,1.041-0.572
			c0.355-0.215,0.7-0.432,1.03-0.65c0.773-0.518,1.583-1.108,2.431-1.785l1.51,3.863c-1.092,0.785-2.172,1.484-3.241,2.104
			c-0.466,0.258-0.948,0.512-1.445,0.764s-0.997,0.478-1.5,0.672c-0.504,0.197-0.994,0.354-1.473,0.472
			C32.039,37.294,31.593,37.354,31.176,37.354z M31.194,22.625c0.553-0.979,1.138-2.087,1.758-3.312
			c0.62-1.229,1.206-2.492,1.758-3.794c0.552-1.303,1.031-2.602,1.436-3.895c0.405-1.296,0.663-2.502,0.773-3.619
			c0-0.354-0.009-0.657-0.028-0.912c-0.018-0.251-0.077-0.376-0.175-0.376c-0.356,0-0.739,0.23-1.15,0.689
			c-0.412,0.461-0.822,1.083-1.234,1.869c-0.411,0.785-0.804,1.699-1.179,2.743c-0.374,1.044-0.708,2.151-1.003,3.331
			c-0.294,1.18-0.528,2.393-0.7,3.638C31.28,20.235,31.194,21.446,31.194,22.625z M56.914,32.843
			c-0.283,0.396-0.66,0.854-1.132,1.384c-0.472,0.524-1.003,1.028-1.593,1.51c-0.589,0.479-1.221,0.885-1.896,1.217
			s-1.35,0.496-2.025,0.496c-0.811,0-1.485-0.262-2.025-0.781c-0.54-0.521-1.006-1.277-1.399-2.271
			c-0.294,0.347-0.656,0.691-1.086,1.052c-0.43,0.354-0.899,0.678-1.409,0.967c-0.509,0.289-1.04,0.522-1.592,0.709
			c-0.553,0.188-1.105,0.274-1.657,0.274c-0.588,0-1.163-0.119-1.721-0.356c-0.558-0.24-1.052-0.584-1.482-1.031
			c-0.429-0.444-0.773-0.993-1.03-1.639C36.609,33.725,36.48,33,36.48,32.188c0-0.92,0.128-1.863,0.387-2.836
			c0.258-0.972,0.613-1.918,1.067-2.847c0.454-0.928,0.991-1.801,1.611-2.624c0.62-0.82,1.298-1.54,2.034-2.151
			c0.737-0.613,1.513-1.104,2.329-1.466c0.816-0.36,1.648-0.544,2.495-0.544c0.283,0,0.503,0.058,0.663,0.166
			c0.16,0.111,0.292,0.236,0.396,0.379c0.105,0.143,0.207,0.277,0.304,0.412c0.098,0.139,0.221,0.233,0.368,0.298
			c0.147,0.062,0.297,0.103,0.451,0.117c0.154,0.021,0.31,0.027,0.47,0.027c0.135,0,0.273-0.003,0.414-0.009
			c0.142-0.008,0.279-0.011,0.414-0.011c0.184,0,0.356,0.019,0.516,0.056c0.16,0.037,0.301,0.117,0.423,0.238
			c0.123,0.122,0.218,0.296,0.285,0.517c0.068,0.221,0.102,0.521,0.102,0.903c0,0.588-0.062,1.239-0.185,1.96
			c-0.123,0.718-0.257,1.454-0.405,2.209c-0.147,0.754-0.282,1.511-0.405,2.267C50.09,30,50.03,30.716,50.03,31.391
			c0,0.573,0.052,1.024,0.156,1.354c0.104,0.324,0.329,0.486,0.673,0.486c0.258,0,0.527-0.062,0.81-0.191s0.568-0.297,0.856-0.506
			s0.576-0.445,0.865-0.709c0.289-0.266,0.562-0.537,0.819-0.82c0.602-0.662,1.209-1.41,1.823-2.246L56.914,32.843z M41.191,31.389
			c0,0.307,0.021,0.604,0.065,0.895c0.042,0.287,0.119,0.547,0.229,0.771c0.111,0.229,0.258,0.409,0.442,0.555
			c0.184,0.143,0.417,0.211,0.7,0.211c0.454,0,0.865-0.195,1.233-0.588c0.368-0.396,0.688-0.865,0.958-1.42
			c0.27-0.556,0.488-1.121,0.654-1.711c0.166-0.593,0.273-1.08,0.322-1.478l1.124-5.412c-0.504,0-0.995,0.126-1.473,0.376
			c-0.479,0.252-0.93,0.595-1.353,1.023c-0.424,0.429-0.813,0.921-1.169,1.474c-0.356,0.556-0.663,1.131-0.92,1.74
			c-0.257,0.604-0.458,1.217-0.599,1.832C41.261,30.271,41.191,30.848,41.191,31.389z M60.43,37.354
			c-1.128,0-2.121-0.207-2.974-0.625c-0.854-0.418-1.568-0.979-2.145-1.679c-0.576-0.696-1.013-1.51-1.308-2.432
			c-0.294-0.92-0.441-1.877-0.441-2.871c0-0.713,0.074-1.455,0.221-2.228c0.147-0.774,0.365-1.533,0.653-2.274
			c0.288-0.742,0.644-1.451,1.067-2.126c0.424-0.675,0.915-1.267,1.473-1.776c0.559-0.51,1.182-0.911,1.87-1.215
			c0.687-0.302,1.441-0.452,2.264-0.452c0.7,0,1.347,0.108,1.943,0.322c0.595,0.216,1.104,0.515,1.527,0.896
			c0.424,0.381,0.755,0.83,0.994,1.354c0.24,0.522,0.359,1.083,0.359,1.687c0,0.417-0.056,0.828-0.166,1.23
			c-0.111,0.403-0.273,0.771-0.488,1.099c-0.215,0.323-0.476,0.586-0.783,0.778c-0.308,0.197-0.65,0.295-1.031,0.295
			c-0.577,0-0.955-0.149-1.132-0.459c-0.178-0.308-0.267-0.729-0.267-1.271c0-0.226,0.009-0.455,0.027-0.699
			c0.018-0.246,0.028-0.467,0.028-0.663c0-0.294-0.031-0.54-0.092-0.736c-0.062-0.193-0.196-0.295-0.405-0.295
			c-0.503,0-0.933,0.119-1.288,0.359c-0.354,0.239-0.659,0.551-0.91,0.938c-0.252,0.387-0.451,0.819-0.599,1.308
			c-0.148,0.483-0.264,0.969-0.35,1.443c-0.086,0.479-0.141,0.938-0.166,1.37c-0.024,0.438-0.036,0.804-0.036,1.099
			c0,0.438,0.04,0.899,0.119,1.381c0.08,0.479,0.23,0.916,0.451,1.312c0.221,0.397,0.522,0.729,0.902,0.994
			c0.38,0.269,0.872,0.396,1.473,0.396c0.589,0,1.24-0.186,1.952-0.543c0.712-0.362,1.427-0.817,2.145-1.371
			c0.718-0.555,1.402-1.159,2.053-1.821c0.65-0.664,1.209-1.289,1.675-1.879l1.27,2.137c-0.92,1.312-1.915,2.483-2.982,3.521
			c-0.455,0.438-0.949,0.871-1.482,1.287c-0.534,0.418-1.093,0.787-1.676,1.11c-0.583,0.326-1.19,0.592-1.822,0.793
			C61.722,37.253,61.081,37.354,60.43,37.354z M74.201,27.062c0.442-0.562,0.927-1.188,1.455-1.857
			c0.527-0.676,1.046-1.32,1.557-1.935c0.51-0.614,0.977-1.159,1.398-1.642c0.423-0.479,0.758-0.804,1.003-0.976
			c0.38-0.271,0.848-0.499,1.399-0.689c0.551-0.188,1.167-0.284,1.84-0.284c0.345,0,0.672,0.077,0.982,0.238
			c0.312,0.159,0.586,0.388,0.816,0.683c0.23,0.296,0.418,0.648,0.556,1.065c0.138,0.418,0.201,0.884,0.201,1.399
			c0,0.503-0.122,1.01-0.366,1.52c-0.246,0.509-0.554,1.021-0.921,1.537c-0.369,0.518-0.771,1.029-1.197,1.547
			c-0.43,0.518-0.825,1.033-1.194,1.559c-0.368,0.521-0.676,1.039-0.92,1.558c-0.246,0.516-0.369,1.028-0.369,1.545
			c0,0.442,0.106,0.76,0.322,0.948c0.215,0.188,0.549,0.285,1.004,0.285c0.248,0,0.513-0.082,0.8-0.248
			c0.289-0.166,0.586-0.389,0.895-0.653c0.309-0.271,0.616-0.57,0.932-0.902c0.312-0.332,0.612-0.668,0.9-1.012
			c0.29-0.345,0.562-0.672,0.819-0.983c0.257-0.312,0.489-0.578,0.698-0.804l1.104,4.513c-0.382,0.555-0.86,1.063-1.442,1.536
			c-0.582,0.476-1.219,0.888-1.896,1.232c-0.682,0.352-1.387,0.623-2.117,0.817c-0.73,0.193-1.434,0.297-2.107,0.297
			c-0.883,0-1.604-0.108-2.164-0.321c-0.559-0.216-0.998-0.5-1.314-0.854s-0.537-0.759-0.652-1.205
			c-0.117-0.447-0.176-0.91-0.176-1.394c0-0.281,0.033-0.629,0.102-1.039c0.067-0.412,0.195-0.875,0.387-1.392
			c0.189-0.52,0.458-1.082,0.801-1.702c0.344-0.619,0.792-1.285,1.346-1.996c0.221-0.224,1.653-2.045,1.371-2.487
			c-0.101-0.153-0.225-0.237-0.396-0.237c-0.207,0-0.479,0.137-0.81,0.403c-0.332,0.271-0.695,0.742-1.088,1.416l-5.413,9.502
			c-0.282,0.49-0.573,0.832-0.875,1.021c-0.301,0.188-0.648,0.285-1.041,0.285c-0.528,0-0.945-0.113-1.252-0.342
			c-0.306-0.229-0.54-0.533-0.7-0.923c-0.16-0.389-0.261-0.836-0.303-1.346c-0.042-0.509-0.064-1.054-0.064-1.629
			c0-0.699,0.025-1.627,0.073-2.779c0.049-1.151,0.123-2.422,0.222-3.803c0.098-1.382,0.229-2.826,0.396-4.334
			c0.166-1.511,0.365-2.979,0.599-4.401c0.086-0.504,0.196-1.111,0.332-1.832c0.135-0.718,0.304-1.485,0.506-2.31
			c0.203-0.822,0.442-1.679,0.718-2.568c0.276-0.891,0.596-1.755,0.958-2.597c0.362-0.84,0.77-1.643,1.224-2.402
			c0.454-0.759,0.964-1.427,1.528-1.996c0.564-0.569,1.186-1.021,1.859-1.354c0.673-0.333,1.412-0.498,2.209-0.498
			c0.625,0,1.141,0.104,1.547,0.304c0.404,0.203,0.728,0.485,0.966,0.85c0.239,0.359,0.409,0.795,0.508,1.298
			c0.099,0.504,0.146,1.05,0.146,1.639c0,1.042-0.131,2.167-0.396,3.369c-0.265,1.203-0.6,2.409-1.003,3.618
			c-0.404,1.209-0.848,2.385-1.326,3.522c-0.479,1.146-0.938,2.175-1.38,3.097c-0.442,0.92-0.832,1.692-1.169,2.327
			c-0.339,0.634-0.562,1.048-0.672,1.241L74.201,27.062z M77.812,6.385c-0.395,0-0.73,0.122-1.015,0.368
			c-0.28,0.245-0.55,0.597-0.801,1.052c-0.252,0.451-0.503,1.006-0.755,1.654c-0.251,0.651-0.537,1.376-0.856,2.173
			c-0.197,0.699-0.377,1.426-0.543,2.174c-0.166,0.749-0.316,1.492-0.451,2.234c-0.135,0.743-0.255,1.478-0.359,2.201
			c-0.104,0.723-0.193,1.405-0.267,2.044c-0.184,1.509-0.332,2.995-0.442,4.455c0.27-0.811,0.565-1.691,0.884-2.644
			c0.319-0.951,0.635-1.893,0.948-2.816c0.312-0.925,0.608-1.803,0.884-2.632s0.507-1.531,0.69-2.107
			c0.084-0.271,0.207-0.604,0.367-1.014c0.16-0.404,0.332-0.84,0.518-1.31c0.185-0.467,0.367-0.947,0.554-1.452
			c0.187-0.505,0.354-0.987,0.506-1.453c0.153-0.47,0.278-0.903,0.38-1.311C78.152,7.598,78.2,7.253,78.2,6.972
			C78.197,6.583,78.068,6.385,77.812,6.385z M92.504,22.533c0.688-0.859,1.312-1.55,1.887-2.071c0.57-0.521,1.139-0.781,1.702-0.781
			c0.726,0,1.368,0.158,1.935,0.479c0.563,0.318,1.043,0.743,1.438,1.271c0.396,0.526,0.692,1.136,0.901,1.82
			c0.209,0.688,0.312,1.405,0.312,2.155c0,0.625-0.023,1.217-0.074,1.773c-0.049,0.561-0.14,1.104-0.269,1.641
			c-0.131,0.533-0.31,1.062-0.53,1.592c-0.229,0.529-0.525,1.074-0.896,1.639c0.439-0.258,0.892-0.508,1.344-0.754
			c0.456-0.246,0.911-0.516,1.373-0.811c0.46-0.295,0.924-0.621,1.391-0.984c0.467-0.359,0.944-0.789,1.438-1.277l1.417,3.035
			c-0.68,0.615-1.35,1.148-2.02,1.604c-0.668,0.454-1.354,0.852-2.062,1.188c-0.705,0.343-1.44,0.634-2.21,0.875
			c-0.768,0.246-1.578,0.47-2.438,0.664c-0.209,0.207-0.494,0.416-0.855,0.625c-0.362,0.209-0.721,0.397-1.075,0.57
			c-0.405,0.196-2.335,0.812-4.87,0.139c-1.029-0.271-1.955-0.608-2.789-0.967c-0.971-0.403-1.896-0.871-2.779-1.397
			c0.037-0.992,0.109-2.115,0.224-3.367c0.103-1.08,0.231-2.354,0.401-3.82c0.176-1.467,0.406-3.103,0.701-4.906
			c0.195-1.203,0.44-2.544,0.735-4.021c0.296-1.479,0.642-2.979,1.041-4.492c0.397-1.517,0.847-2.989,1.345-4.418
			c0.496-1.433,1.049-2.704,1.656-3.82c0.607-1.116,1.271-2.014,1.987-2.688c0.718-0.677,1.495-1.016,2.329-1.016
			c0.935,0,1.681,0.16,2.244,0.479c0.562,0.317,1.002,0.751,1.309,1.297c0.309,0.548,0.511,1.188,0.607,1.925
			c0.099,0.735,0.146,1.521,0.146,2.356c0,1.166-0.219,2.368-0.651,3.605c-0.438,1.239-1.004,2.479-1.703,3.71
			c-0.696,1.233-1.479,2.439-2.35,3.617C93.932,20.177,92.504,22.533,92.504,22.533z M94.159,23.877
			c-0.429,0-0.857,0.089-1.289,0.269c-0.429,0.18-0.826,0.456-1.194,0.83c-0.369,0.374-0.693,0.854-0.978,1.438
			c-0.282,0.584-0.491,1.285-0.625,2.105c-0.109,0.662-0.203,1.271-0.275,1.832c-0.073,0.561-0.136,1.055-0.185,1.479
			c-0.051,0.489-0.092,0.951-0.129,1.379c0.404,0.123,0.812,0.229,1.215,0.313c0.355,0.072,0.73,0.142,1.124,0.201
			c0.394,0.062,0.768,0.094,1.122,0.094c0.418,0,0.8-0.123,1.144-0.368c0.345-0.244,0.647-0.572,0.921-0.984
			c0.27-0.409,0.504-0.881,0.7-1.405c0.194-0.527,0.354-1.076,0.478-1.646c0.125-0.57,0.215-1.137,0.276-1.695
			c0.062-0.557,0.093-1.066,0.093-1.533c0-0.311-0.033-0.602-0.104-0.875c-0.066-0.274-0.188-0.52-0.367-0.728
			c-0.179-0.209-0.424-0.379-0.734-0.507C95.033,23.943,94.639,23.877,94.159,23.877z M95.965,7.012c0-0.05-0.011-0.152-0.027-0.312
			c-0.019-0.159-0.062-0.324-0.129-0.497c-0.063-0.171-0.162-0.325-0.285-0.459c-0.123-0.135-0.289-0.203-0.496-0.203
			c-0.243,0-0.502,0.175-0.766,0.524c-0.265,0.349-0.523,0.822-0.781,1.418c-0.258,0.595-0.51,1.281-0.756,2.062
			c-0.244,0.778-0.48,1.597-0.718,2.448c-0.233,0.854-0.45,1.721-0.653,2.604c-0.201,0.885-0.387,1.724-0.553,2.515
			s-0.311,1.517-0.434,2.173c-0.122,0.656-0.221,1.188-0.294,1.592c0.331-0.639,0.702-1.301,1.114-1.985
			c0.41-0.688,0.821-1.402,1.242-2.146c0.416-0.744,0.822-1.504,1.225-2.283c0.396-0.776,0.761-1.576,1.087-2.392
			c0.325-0.816,0.596-1.646,0.81-2.486C95.766,8.739,95.902,7.884,95.965,7.012z M115.223,33.432
			c-0.438,0.403-0.99,0.84-1.646,1.299c-0.654,0.459-1.364,0.885-2.126,1.271c-0.764,0.389-1.537,0.709-2.329,0.967
			c-0.791,0.262-1.543,0.391-2.255,0.391c-0.641,0-1.178-0.09-1.61-0.271c-0.438-0.178-0.789-0.428-1.062-0.744
			c-0.271-0.315-0.465-0.709-0.579-1.17c-0.116-0.459-0.177-0.967-0.177-1.518c0-0.773,0.09-1.675,0.271-2.699
			c0.181-1.022,0.396-2.086,0.651-3.185c0.259-1.104,0.529-2.194,0.818-3.287c0.288-1.094,0.543-2.103,0.764-3.021
			c0.086-0.316,0.26-0.592,0.52-0.815c0.258-0.229,0.551-0.412,0.874-0.556c0.324-0.142,0.662-0.243,1.015-0.312
			c0.352-0.068,0.666-0.104,0.946-0.104c0.519,0,0.864,0.099,1.052,0.286c0.185,0.19,0.272,0.445,0.272,0.768
			c0,0.269-0.062,0.658-0.187,1.169c-0.123,0.509-0.273,1.086-0.461,1.729c-0.186,0.645-0.379,1.337-0.588,2.079
			c-0.207,0.744-0.404,1.485-0.589,2.229c-0.187,0.738-0.339,1.468-0.461,2.172c-0.122,0.705-0.187,1.343-0.187,1.904
			c0,0.555,0.062,0.988,0.187,1.312c0.122,0.324,0.374,0.488,0.755,0.488c0.44,0,0.934-0.152,1.475-0.459
			c0.541-0.312,1.086-0.685,1.641-1.113c0.555-0.438,1.095-0.889,1.62-1.354c0.526-0.469,0.991-0.865,1.397-1.197v3.738H115.223
			L115.223,33.432z M106.991,14.506c0-0.28,0.062-0.601,0.186-0.957c0.123-0.354,0.321-0.688,0.599-1.004
			c0.276-0.312,0.646-0.576,1.104-0.792c0.459-0.214,1.033-0.318,1.722-0.318c0.434,0,0.836,0.049,1.215,0.146
			c0.385,0.098,0.713,0.248,0.996,0.45c0.281,0.204,0.506,0.47,0.672,0.803c0.166,0.331,0.248,0.725,0.248,1.178
			c0,0.417-0.063,0.822-0.203,1.217c-0.135,0.395-0.35,0.74-0.645,1.051c-0.295,0.307-0.665,0.555-1.115,0.745
			c-0.443,0.188-0.98,0.285-1.606,0.285c-1.08,0-1.878-0.257-2.396-0.767C107.248,16.031,106.991,15.353,106.991,14.506z
			 M113.914,33.505c0-0.539,0.031-1.168,0.092-1.885c0.062-0.72,0.146-1.478,0.25-2.272c0.104-0.8,0.229-1.607,0.366-2.438
			c0.144-0.828,0.292-1.617,0.451-2.366s0.319-1.437,0.479-2.062c0.16-0.625,0.317-1.144,0.479-1.547
			c0.099-0.271,0.197-0.484,0.295-0.646c0.099-0.16,0.212-0.286,0.342-0.378c0.129-0.092,0.287-0.153,0.479-0.186
			c0.189-0.029,0.43-0.048,0.709-0.048c0.318,0,0.567,0.019,0.746,0.048c0.178,0.029,0.312,0.104,0.396,0.223
			c0.086,0.116,0.141,0.285,0.156,0.507c0.02,0.22,0.027,0.521,0.027,0.902c0,0.454,0,1.002,0,1.646c0,0.646,0.012,1.28,0.034,1.907
			h0.202c0.244-0.491,0.521-1.041,0.828-1.648c0.309-0.604,0.662-1.175,1.066-1.701c0.401-0.527,0.863-0.974,1.379-1.334
			c0.519-0.362,1.111-0.544,1.787-0.544c0.231,0,0.459,0.038,0.684,0.118c0.222,0.079,0.414,0.193,0.58,0.342
			c0.166,0.146,0.299,0.327,0.396,0.544c0.096,0.215,0.146,0.457,0.146,0.728c0,0.209-0.029,0.5-0.095,0.874
			c-0.062,0.374-0.129,0.77-0.199,1.179c-0.073,0.41-0.145,0.812-0.203,1.196c-0.062,0.386-0.094,0.708-0.094,0.966
			c0,0.443,0.045,0.812,0.131,1.104c0.085,0.293,0.197,0.526,0.34,0.709c0.145,0.179,0.302,0.304,0.479,0.377
			c0.182,0.072,0.363,0.105,0.562,0.105c0.555,0,1.124-0.119,1.714-0.363c0.589-0.244,1.129-0.521,1.619-0.828
			c0.576-0.354,1.144-0.765,1.692-1.217l-0.272,4.312c-0.317,0.207-0.687,0.438-1.088,0.698c-0.405,0.259-0.838,0.5-1.3,0.728
			c-0.459,0.229-0.938,0.418-1.438,0.57c-0.497,0.151-1.004,0.229-1.52,0.229c-0.924,0-1.664-0.188-2.229-0.562
			c-0.562-0.373-1.014-0.865-1.346-1.475c-0.332-0.607-0.576-1.287-0.736-2.045c-0.159-0.757-0.288-1.521-0.388-2.291h-0.294
			l-3.297,9.188c-0.173,0.479-0.334,0.875-0.487,1.188c-0.15,0.312-0.312,0.565-0.47,0.766c-0.159,0.195-0.332,0.334-0.517,0.416
			c-0.188,0.078-0.39,0.117-0.607,0.117c-0.504,0-0.906-0.107-1.217-0.32c-0.307-0.217-0.543-0.504-0.709-0.867
			c-0.166-0.359-0.273-0.771-0.332-1.23C113.939,34.473,113.914,33.996,113.914,33.505z M148.014,35.55
			c-0.328,0.267-0.729,0.438-1.125,0.652c-0.394,0.215-0.777,0.403-1.158,0.569s-0.752,0.304-1.11,0.4
			c-0.363,0.105-0.697,0.158-1.004,0.158c-0.175,0-0.431-0.037-0.769-0.109c-0.336-0.072-0.705-0.227-1.104-0.449
			c-0.396-0.229-0.797-0.561-1.195-0.983c-0.398-0.431-0.744-1-1.04-1.713c-0.454,0.438-0.937,0.862-1.444,1.26
			c-0.51,0.399-1.037,0.746-1.584,1.041s-1.099,0.531-1.652,0.709c-0.562,0.181-1.121,0.271-1.688,0.271
			c-0.8,0-1.488-0.174-2.072-0.52c-0.582-0.344-1.063-0.801-1.453-1.371c-0.387-0.568-0.676-1.219-0.863-1.939
			c-0.188-0.729-0.284-1.479-0.284-2.245c0-0.785,0.104-1.58,0.306-2.386c0.203-0.809,0.496-1.584,0.884-2.338
			c0.389-0.758,0.854-1.471,1.409-2.139c0.554-0.67,1.181-1.264,1.877-1.787c0.701-0.521,1.464-0.954,2.283-1.297
			c0.819-0.345,1.697-0.559,2.633-0.646c0.037-1.57,0.181-3.123,0.427-4.658c0.243-1.534,0.567-2.995,0.978-4.382
			c0.401-1.391,0.879-2.67,1.426-3.851c0.547-1.179,1.146-2.196,1.795-3.057c0.648-0.86,1.349-1.532,2.08-2.017
			C145.29,2.243,146.051,2,146.837,2c0.576,0,1.065,0.15,1.474,0.451c0.406,0.301,0.733,0.699,0.984,1.197
			c0.251,0.495,0.434,1.07,0.544,1.729c0.109,0.656,0.165,1.335,0.165,2.034c0,0.43-0.02,0.872-0.056,1.325
			c-0.158,1.729-0.455,3.366-0.884,4.907c-0.434,1.539-0.938,3.04-1.51,4.5c-0.576,1.463-1.203,2.907-1.882,4.346
			c-0.676,1.438-1.332,2.928-1.971,4.475c-0.062,0.175-0.122,0.381-0.187,0.625c-0.062,0.246-0.119,0.517-0.176,0.806
			c-0.056,0.287-0.104,0.582-0.139,0.883c-0.037,0.303-0.057,0.594-0.057,0.875c0,0.354,0.021,0.688,0.062,1.014
			c0.044,0.318,0.114,0.604,0.213,0.854c0.101,0.252,0.229,0.45,0.396,0.602c0.166,0.146,0.369,0.219,0.615,0.219
			c0.233,0,0.487-0.045,0.768-0.137c0.273-0.094,0.564-0.219,0.875-0.377c0.308-0.16,0.613-0.342,0.931-0.545
			c0.312-0.203,0.644-0.381,0.911-0.617C150.048,29.309,150.637,33.432,148.014,35.55z M137.923,23.435
			c-0.812,0.395-1.53,0.911-2.164,1.556c-0.631,0.646-1.159,1.342-1.583,2.09s-0.746,1.504-0.967,2.269
			c-0.22,0.762-0.331,1.444-0.331,2.062c0,0.244,0.027,0.489,0.083,0.735c0.055,0.244,0.155,0.465,0.303,0.662
			c0.147,0.191,0.356,0.354,0.627,0.479c0.271,0.123,0.618,0.188,1.051,0.188c0.224,0,0.438-0.059,0.651-0.166
			c0.214-0.11,0.421-0.258,0.616-0.436c0.198-0.18,0.385-0.381,0.562-0.605c0.18-0.229,0.342-0.465,0.485-0.709
			c0.347-0.562,0.655-1.203,0.938-1.914c-0.036-0.175-0.066-0.442-0.094-0.817c-0.022-0.373-0.045-0.791-0.058-1.252
			c-0.015-0.461-0.024-0.938-0.037-1.429c-0.014-0.489-0.021-0.938-0.026-1.347c-0.006-0.401-0.017-0.733-0.024-0.993
			C137.948,23.546,137.936,23.423,137.923,23.435z M146.575,10.088c0.073-0.856,0.11-1.54,0.11-2.045
			c0-0.662-0.062-1.123-0.179-1.38c-0.112-0.257-0.282-0.387-0.505-0.387c-0.396,0-0.75,0.248-1.064,0.744
			c-0.319,0.497-0.604,1.133-0.852,1.903c-0.244,0.773-0.459,1.627-0.646,2.562c-0.187,0.933-0.338,1.835-0.461,2.706
			c-0.121,0.872-0.223,1.656-0.295,2.354c-0.072,0.699-0.123,1.197-0.146,1.491c-0.05,0.604-0.089,1.184-0.12,1.74
			c-0.029,0.558-0.053,1.063-0.062,1.526c-0.014,0.46-0.021,0.861-0.021,1.204c0,0.347,0,0.607,0,0.792v0.187
			c0.7-1.596,1.347-3.188,1.937-4.771c0.244-0.675,0.492-1.383,0.744-2.125c0.252-0.741,0.479-1.485,0.689-2.234
			c0.207-0.748,0.391-1.485,0.542-2.209C146.404,11.423,146.516,10.737,146.575,10.088z"/>
	</g>
	<g>
		<path fill="#FFFFFF" d="M1.727,4.094c0.854-0.521,1.786-0.948,2.799-1.287c1.013-0.339,2.083-0.588,3.213-0.744
			c1.13-0.159,2.29-0.238,3.479-0.238c1.387,0,2.779,0.101,4.179,0.303c1.399,0.203,2.743,0.488,4.032,0.856
			c1.289,0.366,2.491,0.812,3.608,1.334c1.117,0.521,2.09,1.099,2.918,1.729c0.828,0.631,1.479,1.316,1.952,2.055
			c0.473,0.735,0.708,1.505,0.708,2.302c0,0.945-0.206,1.88-0.617,2.799c-0.411,0.921-1.055,1.753-1.933,2.495
			c-0.877,0.74-2,1.353-3.369,1.832c-1.369,0.478-3.01,0.732-4.925,0.771c1.215,0,2.277,0.193,3.185,0.579
			c0.908,0.39,1.669,0.909,2.283,1.565c0.613,0.656,1.074,1.414,1.38,2.271c0.307,0.859,0.46,1.764,0.46,2.706
			c0,0.773-0.104,1.562-0.313,2.357s-0.522,1.562-0.939,2.301c-0.418,0.736-0.939,1.428-1.565,2.072
			c-0.626,0.645-1.36,1.205-2.2,1.686c-0.84,0.479-1.79,0.855-2.844,1.131c-1.056,0.275-2.215,0.414-3.48,0.414
			c-0.798,0-1.638-0.051-2.521-0.152c-0.884-0.104-1.777-0.244-2.679-0.428c-0.903-0.178-1.79-0.389-2.661-0.635
			c-0.872-0.244-1.693-0.51-2.467-0.791c-0.344-0.086-0.648-0.215-0.912-0.387c-0.264-0.174-0.396-0.48-0.396-0.922
			c0-2.037,0.052-4.125,0.156-6.262c0.104-2.138,0.335-4.222,0.635-6.261c0.583-3.961,5.623-4.747,5.293-1.562
			c-0.112,1.072-0.298,2.106-0.396,3.129c-0.062,0.577-0.114,1.188-0.157,1.841c-0.042,0.65-0.083,1.313-0.12,1.988
			c-0.036,0.675-0.063,1.347-0.083,2.017c-0.019,0.67-0.028,1.312-0.028,1.924c0,0.102,0.003,0.232,0.009,0.404
			c0.006,0.172,0.021,0.354,0.047,0.533c0.024,0.186,0.062,0.354,0.111,0.506c0.049,0.154,0.122,0.271,0.221,0.342
			c0.749,0.246,1.553,0.455,2.412,0.625c0.858,0.172,1.718,0.26,2.577,0.26c1.043,0,2.056-0.127,3.038-0.379
			s1.854-0.646,2.615-1.193c0.76-0.547,1.372-1.246,1.832-2.102c0.46-0.854,0.691-1.887,0.691-3.103
			c0-0.713-0.136-1.308-0.406-1.777s-0.623-0.868-1.059-1.188c-0.436-0.32-0.933-0.572-1.491-0.765
			c-0.558-0.188-1.129-0.359-1.712-0.516c-0.583-0.157-1.154-0.303-1.712-0.451c-0.558-0.146-1.056-0.334-1.491-0.561
			c-0.436-0.229-0.789-0.513-1.059-0.851c-0.27-0.337-0.406-0.774-0.406-1.313c0-0.258,0.016-0.48,0.046-0.671
			c0.031-0.19,0.104-0.351,0.222-0.473c0.118-0.122,0.288-0.215,0.516-0.273c0.227-0.062,0.537-0.093,0.929-0.093
			c0.528,0,1.01,0.021,1.445,0.062c0.436,0.044,0.905,0.062,1.409,0.062c1.178,0,2.243-0.146,3.195-0.434
			c0.95-0.288,1.761-0.679,2.43-1.169c0.669-0.492,1.185-1.063,1.547-1.723c0.362-0.657,0.543-1.358,0.543-2.108
			c0-0.491-0.141-0.938-0.423-1.353c-0.282-0.41-0.679-0.779-1.188-1.104c-0.51-0.325-1.108-0.608-1.795-0.854
			c-0.688-0.244-1.436-0.45-2.247-0.616c-0.81-0.165-1.663-0.289-2.559-0.368C14.793,6.16,13.884,6.12,12.964,6.12
			c-1.166,0-2.316,0.065-3.453,0.192C8.377,6.45,7.321,6.645,6.345,6.909C5.369,7.175,4.484,7.468,3.749,7.904
			C1.384,9.304-2.152,6.232,1.727,4.094z M31.176,35.354c-0.663,0-1.28-0.291-1.85-0.873c-0.57-0.584-1.068-1.365-1.491-2.353
			c-0.424-0.979-0.755-2.119-0.995-3.414c-0.239-1.295-0.359-2.651-0.359-4.075c0-1.096,0.08-2.279,0.239-3.562
			c0.16-1.283,0.393-2.604,0.7-3.968c0.307-1.361,0.672-2.731,1.095-4.105c0.424-1.374,0.903-2.692,1.436-3.958
			c0.534-1.265,1.114-2.444,1.74-3.544c0.625-1.098,1.283-2.056,1.969-2.871c0.687-0.813,1.406-1.458,2.155-1.925
			c0.75-0.466,1.51-0.699,2.283-0.699c0.528,0,0.964,0.119,1.308,0.358c0.344,0.24,0.614,0.556,0.81,0.949
			c0.196,0.393,0.334,0.838,0.415,1.334c0.08,0.497,0.119,1.003,0.119,1.52c0,1.154-0.132,2.329-0.396,3.526
			c-0.264,1.194-0.62,2.396-1.068,3.604c-0.448,1.209-0.967,2.424-1.556,3.64c-0.588,1.215-1.203,2.421-1.841,3.617
			c-0.638,1.193-1.28,2.375-1.924,3.532c-0.644,1.159-1.249,2.293-1.813,3.396c-0.062,0.123-0.126,0.281-0.193,0.479
			c-0.067,0.195-0.132,0.408-0.193,0.636c-0.062,0.229-0.123,0.471-0.185,0.729c-0.062,0.258-0.11,0.51-0.146,0.754v0.258
			c0,0.32,0.033,0.629,0.101,0.935c0.067,0.303,0.151,0.567,0.249,0.811c0.098,0.24,0.203,0.434,0.313,0.57
			c0.11,0.143,0.214,0.213,0.312,0.213c0.233,0,0.5-0.049,0.801-0.148c0.3-0.098,0.62-0.229,0.958-0.395s0.684-0.357,1.041-0.572
			c0.355-0.215,0.7-0.432,1.03-0.65c0.773-0.518,1.583-1.108,2.431-1.785l1.51,3.863c-1.092,0.785-2.172,1.484-3.241,2.104
			c-0.466,0.258-0.948,0.512-1.445,0.764s-0.997,0.478-1.5,0.672c-0.504,0.197-0.994,0.354-1.473,0.472
			C32.039,35.294,31.593,35.354,31.176,35.354z M31.194,20.625c0.553-0.979,1.138-2.087,1.758-3.312
			c0.62-1.229,1.206-2.492,1.758-3.794c0.552-1.303,1.031-2.602,1.436-3.895c0.405-1.296,0.663-2.502,0.773-3.619
			c0-0.354-0.009-0.657-0.028-0.912c-0.018-0.251-0.077-0.376-0.175-0.376c-0.356,0-0.739,0.23-1.15,0.689
			c-0.412,0.461-0.822,1.083-1.234,1.869c-0.411,0.785-0.804,1.699-1.179,2.743c-0.374,1.044-0.708,2.151-1.003,3.331
			c-0.294,1.18-0.528,2.393-0.7,3.638C31.28,18.235,31.194,19.446,31.194,20.625z M56.914,30.843
			c-0.283,0.396-0.66,0.854-1.132,1.384c-0.472,0.524-1.003,1.028-1.593,1.51c-0.589,0.479-1.221,0.885-1.896,1.217
			s-1.35,0.496-2.025,0.496c-0.811,0-1.485-0.262-2.025-0.781c-0.54-0.521-1.006-1.277-1.399-2.271
			c-0.294,0.347-0.656,0.691-1.086,1.052c-0.43,0.354-0.899,0.678-1.409,0.967c-0.509,0.289-1.04,0.522-1.592,0.709
			c-0.553,0.188-1.105,0.274-1.657,0.274c-0.588,0-1.163-0.118-1.721-0.356c-0.558-0.24-1.052-0.584-1.482-1.031
			c-0.429-0.444-0.773-0.993-1.03-1.639C36.609,31.725,36.48,31,36.48,30.188c0-0.92,0.128-1.863,0.387-2.836
			c0.258-0.972,0.613-1.918,1.067-2.847c0.454-0.927,0.991-1.801,1.611-2.623c0.62-0.82,1.298-1.54,2.034-2.151
			c0.737-0.613,1.513-1.104,2.329-1.466c0.816-0.36,1.648-0.544,2.495-0.544c0.283,0,0.503,0.058,0.663,0.166
			c0.16,0.111,0.292,0.236,0.396,0.379c0.105,0.143,0.207,0.277,0.304,0.412c0.098,0.139,0.221,0.233,0.368,0.298
			c0.147,0.062,0.297,0.103,0.451,0.117c0.154,0.021,0.31,0.027,0.47,0.027c0.135,0,0.273-0.003,0.414-0.009
			c0.142-0.008,0.279-0.011,0.414-0.011c0.184,0,0.356,0.019,0.516,0.056c0.16,0.037,0.301,0.117,0.423,0.238
			c0.123,0.122,0.218,0.296,0.285,0.517c0.068,0.221,0.102,0.521,0.102,0.903c0,0.588-0.062,1.239-0.185,1.96
			c-0.123,0.718-0.257,1.453-0.405,2.209c-0.147,0.755-0.282,1.511-0.405,2.267C50.09,28,50.03,28.716,50.03,29.391
			c0,0.573,0.052,1.024,0.156,1.354c0.104,0.324,0.329,0.486,0.673,0.486c0.258,0,0.527-0.062,0.81-0.191s0.568-0.297,0.856-0.506
			s0.576-0.445,0.865-0.709c0.289-0.266,0.562-0.537,0.819-0.82c0.602-0.662,1.209-1.41,1.823-2.246L56.914,30.843z M41.191,29.389
			c0,0.307,0.021,0.604,0.065,0.895c0.042,0.287,0.119,0.547,0.229,0.771c0.111,0.229,0.258,0.409,0.442,0.555
			c0.184,0.143,0.417,0.211,0.7,0.211c0.454,0,0.865-0.195,1.233-0.588c0.368-0.396,0.688-0.865,0.958-1.42
			c0.27-0.556,0.488-1.121,0.654-1.711c0.166-0.593,0.273-1.08,0.322-1.478l1.124-5.412c-0.504,0-0.995,0.126-1.473,0.376
			c-0.479,0.252-0.93,0.595-1.353,1.023c-0.424,0.429-0.813,0.921-1.169,1.473c-0.356,0.555-0.663,1.131-0.92,1.741
			c-0.257,0.604-0.458,1.217-0.599,1.832C41.261,28.271,41.191,28.848,41.191,29.389z M60.43,35.354
			c-1.128,0-2.121-0.207-2.974-0.625c-0.854-0.418-1.568-0.979-2.145-1.679c-0.576-0.696-1.013-1.51-1.308-2.432
			c-0.294-0.92-0.441-1.877-0.441-2.871c0-0.713,0.074-1.455,0.221-2.228c0.147-0.774,0.365-1.533,0.653-2.274
			c0.288-0.742,0.644-1.451,1.067-2.127c0.424-0.675,0.915-1.267,1.473-1.776c0.559-0.51,1.182-0.911,1.87-1.215
			c0.687-0.302,1.441-0.452,2.264-0.452c0.7,0,1.347,0.108,1.943,0.322c0.595,0.216,1.104,0.515,1.527,0.896
			c0.424,0.381,0.755,0.83,0.994,1.354c0.24,0.522,0.359,1.083,0.359,1.687c0,0.417-0.056,0.828-0.166,1.231
			c-0.111,0.404-0.273,0.771-0.488,1.097c-0.215,0.324-0.476,0.587-0.783,0.779c-0.308,0.197-0.65,0.295-1.031,0.295
			c-0.577,0-0.955-0.15-1.132-0.459c-0.178-0.307-0.267-0.729-0.267-1.271c0-0.224,0.009-0.455,0.027-0.699
			c0.018-0.246,0.028-0.467,0.028-0.663c0-0.294-0.031-0.54-0.092-0.736c-0.062-0.193-0.196-0.295-0.405-0.295
			c-0.503,0-0.933,0.119-1.288,0.359c-0.354,0.239-0.659,0.551-0.91,0.938c-0.252,0.387-0.451,0.819-0.599,1.308
			c-0.148,0.484-0.264,0.967-0.35,1.443c-0.086,0.479-0.141,0.938-0.166,1.37c-0.024,0.438-0.036,0.805-0.036,1.1
			c0,0.438,0.04,0.898,0.119,1.379c0.08,0.479,0.23,0.918,0.451,1.312c0.221,0.398,0.522,0.73,0.902,0.994
			c0.38,0.27,0.872,0.396,1.473,0.396c0.589,0,1.24-0.187,1.952-0.543c0.712-0.363,1.427-0.818,2.145-1.373
			c0.718-0.554,1.402-1.158,2.053-1.82c0.65-0.664,1.209-1.289,1.675-1.879l1.27,2.137c-0.92,1.312-1.915,2.484-2.982,3.52
			c-0.455,0.438-0.949,0.873-1.482,1.287c-0.534,0.418-1.093,0.789-1.676,1.111c-0.583,0.326-1.19,0.592-1.822,0.793
			C61.722,35.253,61.081,35.354,60.43,35.354z M74.201,25.062c0.442-0.563,0.927-1.188,1.455-1.858
			c0.527-0.675,1.046-1.319,1.557-1.934c0.51-0.614,0.977-1.159,1.398-1.642c0.423-0.479,0.758-0.804,1.003-0.976
			c0.38-0.271,0.848-0.499,1.399-0.689c0.551-0.188,1.167-0.284,1.84-0.284c0.345,0,0.672,0.077,0.982,0.238
			c0.312,0.159,0.586,0.388,0.816,0.683c0.23,0.296,0.418,0.648,0.556,1.065c0.138,0.418,0.201,0.884,0.201,1.399
			c0,0.503-0.122,1.01-0.366,1.52c-0.246,0.51-0.554,1.021-0.921,1.536c-0.369,0.517-0.771,1.03-1.197,1.547
			c-0.43,0.517-0.825,1.033-1.194,1.558c-0.368,0.521-0.676,1.041-0.92,1.559c-0.246,0.516-0.369,1.029-0.369,1.545
			c0,0.441,0.106,0.76,0.322,0.949c0.215,0.188,0.549,0.285,1.004,0.285c0.248,0,0.513-0.084,0.8-0.248
			c0.289-0.168,0.586-0.39,0.895-0.654c0.309-0.271,0.616-0.57,0.932-0.902c0.312-0.332,0.612-0.668,0.9-1.012
			c0.29-0.344,0.562-0.672,0.819-0.984c0.257-0.312,0.489-0.578,0.698-0.803l1.104,4.512c-0.382,0.557-0.86,1.064-1.442,1.537
			c-0.582,0.477-1.219,0.887-1.896,1.232c-0.682,0.352-1.387,0.623-2.117,0.818c-0.73,0.192-1.434,0.295-2.107,0.295
			c-0.883,0-1.604-0.107-2.164-0.32c-0.559-0.215-0.998-0.5-1.314-0.855c-0.316-0.354-0.537-0.758-0.652-1.203
			c-0.117-0.449-0.176-0.912-0.176-1.395c0-0.281,0.033-0.629,0.102-1.039c0.067-0.412,0.195-0.875,0.387-1.391
			c0.189-0.521,0.458-1.084,0.801-1.703c0.344-0.619,0.792-1.285,1.346-1.996c0.221-0.225,1.653-2.044,1.371-2.487
			c-0.101-0.153-0.225-0.237-0.396-0.237c-0.207,0-0.479,0.137-0.81,0.403c-0.332,0.271-0.695,0.742-1.088,1.417l-5.413,9.501
			c-0.282,0.49-0.573,0.832-0.875,1.021c-0.301,0.188-0.648,0.285-1.041,0.285c-0.528,0-0.945-0.112-1.252-0.342
			c-0.306-0.229-0.54-0.533-0.7-0.922s-0.261-0.836-0.303-1.346s-0.064-1.053-0.064-1.629c0-0.699,0.025-1.627,0.073-2.779
			c0.049-1.152,0.123-2.422,0.222-3.802c0.098-1.381,0.229-2.826,0.396-4.335c0.166-1.511,0.365-2.979,0.599-4.401
			c0.086-0.504,0.196-1.111,0.332-1.832c0.135-0.718,0.304-1.485,0.506-2.31c0.203-0.822,0.442-1.679,0.718-2.568
			c0.276-0.891,0.596-1.755,0.958-2.597c0.362-0.84,0.77-1.643,1.224-2.402c0.454-0.759,0.964-1.427,1.528-1.996
			c0.564-0.569,1.186-1.021,1.859-1.354c0.673-0.333,1.412-0.498,2.209-0.498c0.625,0,1.141,0.104,1.547,0.304
			c0.404,0.203,0.728,0.485,0.966,0.85c0.239,0.359,0.409,0.795,0.508,1.298c0.099,0.504,0.146,1.05,0.146,1.639
			c0,1.042-0.131,2.167-0.396,3.369c-0.265,1.203-0.6,2.409-1.003,3.618c-0.404,1.209-0.848,2.385-1.326,3.522
			c-0.479,1.146-0.938,2.175-1.38,3.097c-0.442,0.92-0.832,1.692-1.169,2.327c-0.339,0.634-0.562,1.048-0.672,1.241L74.201,25.062z
			 M77.812,4.385c-0.395,0-0.73,0.122-1.015,0.368c-0.28,0.245-0.55,0.597-0.801,1.052c-0.252,0.451-0.503,1.006-0.755,1.654
			c-0.251,0.651-0.537,1.376-0.856,2.173c-0.197,0.699-0.377,1.426-0.543,2.174c-0.166,0.749-0.316,1.492-0.451,2.234
			c-0.135,0.743-0.255,1.478-0.359,2.201c-0.104,0.723-0.193,1.405-0.267,2.044c-0.184,1.509-0.332,2.995-0.442,4.455
			c0.27-0.811,0.565-1.691,0.884-2.644c0.319-0.951,0.635-1.893,0.948-2.816c0.312-0.925,0.608-1.803,0.884-2.632
			s0.507-1.531,0.69-2.107c0.084-0.271,0.207-0.604,0.367-1.014c0.16-0.404,0.332-0.84,0.518-1.31
			c0.185-0.467,0.367-0.947,0.554-1.452c0.187-0.505,0.354-0.987,0.506-1.453c0.153-0.47,0.278-0.903,0.38-1.311
			C78.152,5.598,78.2,5.253,78.2,4.972C78.197,4.583,78.068,4.385,77.812,4.385z M92.504,20.533c0.688-0.859,1.312-1.55,1.887-2.071
			c0.57-0.521,1.139-0.781,1.702-0.781c0.726,0,1.368,0.158,1.935,0.479c0.563,0.318,1.043,0.743,1.438,1.271
			c0.396,0.526,0.692,1.136,0.901,1.82c0.209,0.688,0.312,1.405,0.312,2.154c0,0.625-0.023,1.218-0.074,1.774
			c-0.049,0.561-0.14,1.104-0.269,1.641c-0.131,0.533-0.31,1.062-0.53,1.592c-0.229,0.529-0.525,1.074-0.896,1.639
			c0.439-0.258,0.892-0.508,1.344-0.754c0.456-0.246,0.911-0.516,1.373-0.811c0.46-0.295,0.924-0.621,1.391-0.984
			c0.467-0.359,0.944-0.789,1.438-1.277l1.417,3.035c-0.68,0.615-1.35,1.148-2.02,1.604c-0.668,0.454-1.354,0.852-2.062,1.188
			c-0.705,0.343-1.44,0.634-2.21,0.875c-0.768,0.246-1.578,0.47-2.438,0.664c-0.209,0.207-0.494,0.416-0.855,0.625
			c-0.362,0.209-0.721,0.397-1.075,0.57c-0.405,0.196-2.335,0.812-4.87,0.139c-1.029-0.271-1.955-0.608-2.789-0.967
			c-0.971-0.403-1.896-0.871-2.779-1.397c0.037-0.992,0.109-2.115,0.224-3.367c0.103-1.08,0.231-2.354,0.401-3.82
			c0.176-1.467,0.406-3.103,0.701-4.906c0.195-1.203,0.44-2.544,0.735-4.021c0.296-1.479,0.642-2.979,1.041-4.492
			c0.397-1.517,0.847-2.989,1.345-4.418c0.496-1.433,1.049-2.704,1.656-3.82c0.607-1.116,1.271-2.014,1.987-2.688
			c0.718-0.677,1.495-1.016,2.329-1.016c0.935,0,1.681,0.16,2.244,0.479c0.562,0.317,1.002,0.751,1.309,1.297
			c0.309,0.548,0.511,1.188,0.607,1.925c0.099,0.735,0.146,1.521,0.146,2.356c0,1.166-0.219,2.368-0.651,3.605
			c-0.438,1.239-1.004,2.479-1.703,3.71c-0.696,1.233-1.479,2.439-2.35,3.617C93.932,18.177,92.504,20.533,92.504,20.533z
			 M94.159,21.877c-0.429,0-0.857,0.089-1.289,0.269c-0.429,0.18-0.826,0.456-1.194,0.83c-0.369,0.373-0.693,0.854-0.978,1.437
			c-0.282,0.584-0.491,1.286-0.625,2.106c-0.109,0.662-0.203,1.271-0.275,1.832c-0.073,0.561-0.136,1.055-0.185,1.479
			c-0.051,0.489-0.092,0.951-0.129,1.379c0.404,0.123,0.812,0.229,1.215,0.313c0.355,0.072,0.73,0.142,1.124,0.201
			c0.394,0.062,0.768,0.094,1.122,0.094c0.418,0,0.8-0.123,1.144-0.368c0.345-0.244,0.647-0.572,0.921-0.984
			c0.27-0.409,0.504-0.881,0.7-1.405c0.194-0.527,0.354-1.076,0.478-1.646c0.125-0.57,0.215-1.137,0.276-1.695
			c0.062-0.557,0.093-1.067,0.093-1.533c0-0.31-0.033-0.601-0.104-0.875c-0.066-0.275-0.188-0.52-0.367-0.728
			c-0.179-0.209-0.424-0.379-0.734-0.507C95.033,21.943,94.639,21.877,94.159,21.877z M95.965,5.012c0-0.05-0.011-0.152-0.027-0.312
			c-0.019-0.159-0.062-0.324-0.129-0.497c-0.063-0.171-0.162-0.325-0.285-0.459c-0.123-0.135-0.289-0.203-0.496-0.203
			c-0.243,0-0.502,0.175-0.766,0.524c-0.265,0.349-0.523,0.822-0.781,1.418c-0.258,0.595-0.51,1.281-0.756,2.062
			c-0.244,0.778-0.48,1.597-0.718,2.448c-0.233,0.854-0.45,1.721-0.653,2.604c-0.201,0.885-0.387,1.724-0.553,2.515
			s-0.311,1.517-0.434,2.173c-0.122,0.656-0.221,1.188-0.294,1.592c0.331-0.639,0.702-1.301,1.114-1.985
			c0.41-0.688,0.821-1.402,1.242-2.146c0.416-0.744,0.822-1.504,1.225-2.283c0.396-0.776,0.761-1.576,1.087-2.392
			c0.325-0.816,0.596-1.646,0.81-2.486C95.766,6.739,95.902,5.884,95.965,5.012z M115.223,31.432
			c-0.438,0.403-0.99,0.84-1.646,1.299c-0.654,0.459-1.364,0.885-2.126,1.271c-0.764,0.389-1.537,0.709-2.329,0.967
			c-0.791,0.262-1.543,0.391-2.255,0.391c-0.641,0-1.178-0.09-1.61-0.271c-0.438-0.178-0.789-0.428-1.062-0.744
			c-0.271-0.315-0.465-0.709-0.579-1.17c-0.116-0.459-0.177-0.967-0.177-1.518c0-0.773,0.09-1.675,0.271-2.699
			c0.181-1.022,0.396-2.086,0.651-3.185c0.259-1.104,0.529-2.194,0.818-3.287c0.288-1.094,0.543-2.103,0.764-3.021
			c0.086-0.316,0.26-0.592,0.52-0.815c0.258-0.229,0.551-0.412,0.874-0.556c0.324-0.142,0.662-0.243,1.015-0.312
			c0.352-0.068,0.666-0.104,0.946-0.104c0.519,0,0.864,0.099,1.052,0.286c0.185,0.19,0.272,0.445,0.272,0.768
			c0,0.269-0.062,0.658-0.187,1.169c-0.123,0.509-0.273,1.086-0.461,1.729c-0.186,0.645-0.379,1.337-0.588,2.079
			c-0.207,0.743-0.404,1.485-0.589,2.229c-0.187,0.738-0.339,1.468-0.461,2.172c-0.122,0.705-0.187,1.343-0.187,1.904
			c0,0.555,0.062,0.988,0.187,1.312c0.122,0.324,0.374,0.488,0.755,0.488c0.44,0,0.934-0.152,1.475-0.459
			c0.541-0.312,1.086-0.685,1.641-1.113c0.555-0.438,1.095-0.889,1.62-1.354c0.526-0.469,0.991-0.865,1.397-1.197v3.738H115.223
			L115.223,31.432z M106.991,12.506c0-0.28,0.062-0.601,0.186-0.957c0.123-0.354,0.321-0.688,0.599-1.004
			c0.276-0.312,0.646-0.576,1.104-0.792c0.459-0.214,1.033-0.318,1.722-0.318c0.434,0,0.836,0.049,1.215,0.146
			c0.385,0.098,0.713,0.248,0.996,0.45c0.281,0.204,0.506,0.47,0.672,0.803c0.166,0.331,0.248,0.725,0.248,1.178
			c0,0.417-0.063,0.822-0.203,1.217c-0.135,0.395-0.35,0.74-0.645,1.051c-0.295,0.307-0.665,0.555-1.115,0.745
			c-0.443,0.188-0.98,0.285-1.606,0.285c-1.08,0-1.878-0.257-2.396-0.767C107.248,14.031,106.991,13.353,106.991,12.506z
			 M113.914,31.505c0-0.539,0.031-1.168,0.092-1.885c0.062-0.72,0.146-1.478,0.25-2.272c0.104-0.8,0.229-1.607,0.366-2.438
			c0.144-0.829,0.292-1.618,0.451-2.366c0.159-0.749,0.319-1.437,0.479-2.062c0.16-0.625,0.317-1.144,0.479-1.547
			c0.099-0.271,0.197-0.484,0.295-0.646c0.099-0.16,0.212-0.286,0.342-0.378c0.129-0.092,0.287-0.153,0.479-0.186
			c0.189-0.029,0.43-0.048,0.709-0.048c0.318,0,0.567,0.019,0.746,0.048c0.178,0.029,0.312,0.104,0.396,0.223
			c0.086,0.116,0.141,0.285,0.156,0.507c0.02,0.22,0.027,0.521,0.027,0.902c0,0.454,0,1.002,0,1.646c0,0.646,0.012,1.28,0.034,1.907
			h0.202c0.244-0.491,0.521-1.041,0.828-1.648c0.309-0.604,0.662-1.175,1.066-1.701c0.401-0.527,0.863-0.974,1.379-1.334
			c0.519-0.362,1.111-0.544,1.787-0.544c0.231,0,0.459,0.038,0.684,0.118c0.222,0.079,0.414,0.193,0.58,0.342
			c0.166,0.146,0.299,0.327,0.396,0.544c0.096,0.215,0.146,0.457,0.146,0.728c0,0.209-0.029,0.5-0.095,0.874
			c-0.062,0.374-0.129,0.77-0.199,1.179c-0.073,0.41-0.145,0.812-0.203,1.196c-0.062,0.387-0.094,0.709-0.094,0.966
			c0,0.443,0.045,0.812,0.131,1.105c0.085,0.294,0.197,0.527,0.34,0.708c0.145,0.18,0.302,0.305,0.479,0.377
			c0.182,0.074,0.363,0.106,0.562,0.106c0.555,0,1.124-0.118,1.714-0.362c0.589-0.246,1.129-0.521,1.619-0.83
			c0.576-0.355,1.144-0.764,1.692-1.216l-0.272,4.311c-0.317,0.207-0.687,0.439-1.088,0.697c-0.405,0.26-0.838,0.5-1.3,0.729
			c-0.459,0.229-0.938,0.418-1.438,0.57c-0.497,0.152-1.004,0.229-1.52,0.229c-0.924,0-1.664-0.187-2.229-0.562
			c-0.562-0.373-1.014-0.865-1.346-1.476c-0.332-0.606-0.576-1.287-0.736-2.043c-0.159-0.758-0.288-1.521-0.388-2.292h-0.294
			l-3.297,9.188c-0.173,0.479-0.334,0.875-0.487,1.188c-0.15,0.312-0.312,0.564-0.47,0.765c-0.159,0.194-0.332,0.334-0.517,0.416
			c-0.188,0.077-0.39,0.118-0.607,0.118c-0.504,0-0.906-0.108-1.217-0.321c-0.307-0.216-0.543-0.504-0.709-0.867
			c-0.166-0.358-0.273-0.771-0.332-1.229C113.939,32.473,113.914,31.996,113.914,31.505z M148.014,33.55
			c-0.328,0.267-0.729,0.438-1.125,0.652c-0.394,0.215-0.777,0.403-1.158,0.569s-0.752,0.304-1.11,0.4
			c-0.363,0.105-0.697,0.158-1.004,0.158c-0.175,0-0.431-0.037-0.769-0.109c-0.336-0.072-0.705-0.227-1.104-0.449
			c-0.396-0.229-0.797-0.561-1.195-0.983c-0.398-0.431-0.744-1-1.04-1.713c-0.454,0.438-0.937,0.862-1.444,1.26
			c-0.51,0.399-1.037,0.746-1.584,1.041s-1.099,0.531-1.652,0.709c-0.562,0.181-1.121,0.271-1.688,0.271
			c-0.8,0-1.488-0.174-2.072-0.52c-0.582-0.344-1.063-0.801-1.453-1.371c-0.387-0.568-0.676-1.219-0.863-1.939
			c-0.188-0.729-0.284-1.479-0.284-2.246c0-0.784,0.104-1.579,0.306-2.385c0.203-0.809,0.496-1.584,0.884-2.338
			c0.389-0.757,0.854-1.47,1.409-2.138c0.554-0.67,1.181-1.264,1.877-1.787c0.701-0.521,1.464-0.954,2.283-1.297
			c0.819-0.345,1.697-0.559,2.633-0.646c0.037-1.57,0.181-3.123,0.427-4.658c0.243-1.534,0.567-2.995,0.978-4.382
			c0.401-1.391,0.879-2.67,1.426-3.851c0.547-1.179,1.146-2.196,1.795-3.057c0.648-0.86,1.349-1.532,2.08-2.017
			C145.29,0.243,146.051,0,146.837,0c0.576,0,1.065,0.15,1.474,0.451c0.406,0.301,0.733,0.699,0.984,1.197
			c0.251,0.495,0.434,1.07,0.544,1.729c0.109,0.656,0.165,1.335,0.165,2.034c0,0.43-0.02,0.872-0.056,1.325
			c-0.158,1.729-0.455,3.366-0.884,4.907c-0.434,1.539-0.938,3.04-1.51,4.5c-0.576,1.463-1.203,2.907-1.882,4.346
			c-0.676,1.438-1.332,2.929-1.971,4.475c-0.062,0.175-0.122,0.381-0.187,0.625c-0.062,0.246-0.119,0.517-0.176,0.806
			c-0.056,0.287-0.104,0.582-0.139,0.883c-0.037,0.303-0.057,0.594-0.057,0.875c0,0.354,0.021,0.688,0.062,1.014
			c0.044,0.318,0.114,0.604,0.213,0.854c0.101,0.252,0.229,0.451,0.396,0.602c0.166,0.146,0.369,0.219,0.615,0.219
			c0.233,0,0.487-0.045,0.768-0.137c0.273-0.094,0.564-0.219,0.875-0.377c0.308-0.16,0.613-0.342,0.931-0.545
			c0.312-0.203,0.644-0.381,0.911-0.617C150.048,27.309,150.637,31.432,148.014,33.55z M137.923,21.435
			c-0.812,0.395-1.53,0.911-2.164,1.556c-0.631,0.646-1.159,1.343-1.583,2.09c-0.424,0.748-0.746,1.504-0.967,2.269
			c-0.22,0.762-0.331,1.444-0.331,2.062c0,0.244,0.027,0.489,0.083,0.735c0.055,0.244,0.155,0.465,0.303,0.662
			c0.147,0.191,0.356,0.354,0.627,0.479c0.271,0.123,0.618,0.188,1.051,0.188c0.224,0,0.438-0.059,0.651-0.166
			c0.214-0.11,0.421-0.258,0.616-0.436c0.198-0.18,0.385-0.381,0.562-0.605c0.18-0.229,0.342-0.465,0.485-0.709
			c0.347-0.562,0.655-1.203,0.938-1.914c-0.036-0.175-0.066-0.442-0.094-0.817c-0.022-0.373-0.045-0.791-0.058-1.252
			c-0.015-0.461-0.024-0.938-0.037-1.429c-0.014-0.489-0.021-0.938-0.026-1.346c-0.006-0.401-0.017-0.733-0.024-0.993
			C137.948,21.546,137.936,21.423,137.923,21.435z M146.575,8.088c0.073-0.856,0.11-1.54,0.11-2.045c0-0.662-0.062-1.123-0.179-1.38
			c-0.112-0.257-0.282-0.387-0.505-0.387c-0.396,0-0.75,0.248-1.064,0.744c-0.319,0.497-0.604,1.133-0.852,1.903
			c-0.244,0.773-0.459,1.627-0.646,2.562c-0.187,0.933-0.338,1.835-0.461,2.706c-0.121,0.872-0.223,1.656-0.295,2.354
			c-0.072,0.699-0.123,1.197-0.146,1.491c-0.05,0.604-0.089,1.184-0.12,1.74c-0.029,0.558-0.053,1.063-0.062,1.526
			c-0.014,0.46-0.021,0.861-0.021,1.204c0,0.347,0,0.607,0,0.792v0.187c0.7-1.596,1.347-3.188,1.937-4.771
			c0.244-0.675,0.492-1.383,0.744-2.125c0.252-0.741,0.479-1.485,0.689-2.234c0.207-0.748,0.391-1.485,0.542-2.209
			C146.404,9.423,146.516,8.737,146.575,8.088z"/>
	</g>
</g>
</svg>
